<?xml version="1.0" encoding="iso-8859-1"?>
<!-- Generator: Adobe Illustrator 16.0.0, SVG Export Plug-In . SVG Version: 6.00 Build 0)  -->
<!DOCTYPE svg PUBLIC "-//W3C//DTD SVG 1.1//EN" "http://www.w3.org/Graphics/SVG/1.1/DTD/svg11.dtd">
<svg xmlns="http://www.w3.org/2000/svg" xmlns:xlink="http://www.w3.org/1999/xlink" version="1.1" id="Capa_1" x="0px" y="0px" width="512px" height="512px" viewBox="0 0 489.053 489.053" style="enable-background:new 0 0 489.053 489.053;" xml:space="preserve">
<g>
	<g>
		<path d="M453.328,1.333H263.583c-19.729,0-35.729,16.008-35.729,35.719V203.81L15.263,289.008    C2.806,294.004-3.246,308.15,1.754,320.612c3.805,9.492,12.926,15.25,22.559,15.25c3.004,0,6.066-0.556,9.031-1.741l194.512-77.97    v27.444L56.416,346.934c-8.344,3.069-13.887,11.043-13.887,19.935v99.594c0,11.734,9.516,21.258,21.258,21.258h61.758v-87.066    c0-11.734,9.516-21.258,21.258-21.258h26.324c11.746,0,21.258,9.522,21.258,21.258v87.065h67.355v-0.44h191.59    c19.724,0,35.724-16.008,35.724-35.72V37.051C489.052,17.34,473.052,1.333,453.328,1.333z M338.724,407.202    c0,5.854-4.745,10.6-10.6,10.6h-35.95c-5.854,0-10.6-4.744-10.6-10.6v-35.938c0-5.854,4.745-10.599,10.6-10.599h35.95    c5.854,0,10.6,4.744,10.6,10.599V407.202z M338.724,318.428c0,1.522-1.233,2.757-2.756,2.757h-43.79    c-5.854,0-10.6-4.745-10.6-10.6v-35.939c0-5.854,4.745-10.599,10.6-10.599h35.946c5.854,0,10.6,4.745,10.6,10.599V318.428    L338.724,318.428z M338.724,213.964c0,5.854-4.745,10.599-10.6,10.599h-35.95c-5.854,0-10.6-4.745-10.6-10.599v-35.939    c0-5.854,4.745-10.599,10.6-10.599h35.95c5.854,0,10.6,4.745,10.6,10.599V213.964z M338.724,117.359    c0,5.854-4.745,10.599-10.6,10.599h-35.946c-5.854,0-10.599-4.745-10.599-10.599V81.404c0-5.854,4.744-10.599,10.599-10.599    h35.946c5.854,0,10.6,4.745,10.6,10.599V117.359L338.724,117.359z M435.332,407.202c0,5.854-4.744,10.6-10.599,10.6h-35.947    c-5.854,0-10.599-4.744-10.599-10.6v-35.938c0-5.854,4.744-10.599,10.599-10.599h35.947c5.854,0,10.599,4.744,10.599,10.599    V407.202z M435.332,310.582c0,5.853-4.744,10.598-10.598,10.598h-35.948c-5.854,0-10.598-4.745-10.598-10.598v-35.938    c0-5.853,4.744-10.598,10.598-10.598h35.948c5.854,0,10.598,4.745,10.598,10.598V310.582z M435.332,213.964    c0,5.854-4.744,10.599-10.599,10.599h-35.947c-5.854,0-10.599-4.745-10.599-10.599v-35.939c0-5.854,4.744-10.599,10.599-10.599    h35.947c5.854,0,10.599,4.745,10.599,10.599V213.964z M435.332,117.359c0,5.854-4.744,10.599-10.599,10.599h-35.951    c-5.854,0-10.6-4.745-10.6-10.599V81.404c0-5.854,4.745-10.599,10.6-10.599h35.951c5.854,0,10.599,4.745,10.599,10.599V117.359z" fill="#FFFFFF"/>
	</g>
</g>
<g>
</g>
<g>
</g>
<g>
</g>
<g>
</g>
<g>
</g>
<g>
</g>
<g>
</g>
<g>
</g>
<g>
</g>
<g>
</g>
<g>
</g>
<g>
</g>
<g>
</g>
<g>
</g>
<g>
</g>
</svg>
